<svg width="69" height="12" viewBox="0 0 69 12" fill="none" xmlns="http://www.w3.org/2000/svg">
<path d="M1.89966 7.68388H2.89966C3.45194 7.68388 3.89966 8.1316 3.89966 8.68388V10.6839C3.89966 11.2362 3.45194 11.6839 2.89966 11.6839H1.89966C1.34737 11.6839 0.899658 11.2362 0.899658 10.6839V8.68388C0.899658 8.1316 1.34737 7.68388 1.89966 7.68388ZM6.56635 5.68388H7.56635C8.11863 5.68388 8.56635 6.1316 8.56635 6.68388V10.6839C8.56635 11.2362 8.11863 11.6839 7.56635 11.6839H6.56635C6.01406 11.6839 5.56635 11.2362 5.56635 10.6839V6.68388C5.56635 6.1316 6.01406 5.68388 6.56635 5.68388ZM11.233 3.35055H12.233C12.7853 3.35055 13.233 3.79826 13.233 4.35055V10.6839C13.233 11.2362 12.7853 11.6839 12.233 11.6839H11.233C10.6807 11.6839 10.233 11.2362 10.233 10.6839V4.35055C10.233 3.79826 10.6807 3.35055 11.233 3.35055ZM15.8997 1.01721H16.8997C17.4519 1.01721 17.8997 1.46493 17.8997 2.01721V10.6839C17.8997 11.2362 17.4519 11.6839 16.8997 11.6839H15.8997C15.3474 11.6839 14.8997 11.2362 14.8997 10.6839V2.01721C14.8997 1.46493 15.3474 1.01721 15.8997 1.01721Z" fill="#333333"/>
<path d="M31.5363 3.29454C33.7522 3.29464 35.8833 4.14608 37.4893 5.67288C37.6102 5.79075 37.8035 5.78926 37.9226 5.66954L39.0786 4.50288C39.1389 4.44215 39.1725 4.3599 39.172 4.27432C39.1715 4.18874 39.1369 4.10689 39.0759 4.04687C34.8608 0.00732708 28.211 0.00732708 23.9959 4.04687C23.9349 4.10684 23.9002 4.18867 23.8997 4.27425C23.8991 4.35983 23.9327 4.44211 23.9929 4.50288L25.1493 5.66954C25.2683 5.78944 25.4618 5.79093 25.5826 5.67288C27.1888 4.14598 29.3202 3.29454 31.5363 3.29454ZM31.5363 7.09021C32.7538 7.09014 33.9278 7.54267 34.8303 8.35988C34.9523 8.47586 35.1446 8.47334 35.2636 8.35421L36.4183 7.18754C36.4791 7.12635 36.5128 7.04333 36.512 6.95707C36.5111 6.8708 36.4757 6.78849 36.4136 6.72854C33.6654 4.17216 29.4095 4.17216 26.6613 6.72854C26.5992 6.78849 26.5638 6.87084 26.5629 6.95713C26.5621 7.04343 26.596 7.12643 26.6569 7.18754L27.8113 8.35421C27.9303 8.47334 28.1225 8.47586 28.2446 8.35988C29.1465 7.54321 30.3196 7.09071 31.5363 7.09021ZM33.7553 9.87454C33.817 9.81394 33.851 9.73053 33.8493 9.64403C33.8475 9.55752 33.8101 9.47558 33.7459 9.41754C32.4704 8.33866 30.6022 8.33866 29.3266 9.41754C29.2624 9.47553 29.225 9.55745 29.2231 9.64395C29.2213 9.73046 29.2552 9.81389 29.3169 9.87454L31.3146 11.8902C31.3732 11.9494 31.453 11.9828 31.5363 11.9828C31.6196 11.9828 31.6994 11.9494 31.7579 11.8902L33.7553 9.87454Z" fill="#333333"/>
<path opacity="0.35" d="M63.5053 1.01721H47.8387C46.3659 1.01721 45.172 2.21112 45.172 3.68388V8.68388C45.172 10.1566 46.3659 11.3505 47.8387 11.3505H63.5053C64.9781 11.3505 66.172 10.1566 66.172 8.68388V3.68388C66.172 2.21112 64.9781 1.01721 63.5053 1.01721Z" stroke="#333333"/>
<path opacity="0.4" d="M67.672 4.18372V8.18372C68.4767 7.84494 69 7.05685 69 6.18372C69 5.31058 68.4767 4.52249 67.672 4.18372Z" fill="#333333"/>
<path d="M63.3387 2.51721H48.0053C47.269 2.51721 46.672 3.11417 46.672 3.85055V8.51721C46.672 9.25359 47.269 9.85055 48.0053 9.85055H63.3387C64.075 9.85055 64.672 9.25359 64.672 8.51721V3.85055C64.672 3.11417 64.075 2.51721 63.3387 2.51721Z" fill="#333333"/>
</svg>
